<svg xmlns="http://www.w3.org/2000/svg" viewBox="0 0 600 128" fill="#fff">
	<!-- B -->
	<path d="M16 16h32 a1 1 0 0 1 0 48v-8a1 1 0 0 1 0 48h-32v-8h32a1 1 0 0 0 0-32h-32v-8h32a1 1 0 0 0 0-32h-32z" />
	<!-- I -->
	<path d="M80 16v88h8v-88z" />
	<!-- Y -->
	<path d="M96 16l24 48v40h8v-40L104 16z" />
	<path d="M152 16l-22 44l-4-8L144 16z" />
	<!-- O -->
	<path d="M188 16a.75 1 0 0 0 0 88v-8a.75 1 0 0 1 0-72z" />
	<path d="M196 16a.75 1 0 0 1 0 88v-8a.75 1 0 0 0 0-72z" />

	<path d="
M256 16h16a1 1 0 0 1 0 88h-16v-8h16a1 1 0 0 0 0-72h-16z
M320 16v64a1 1 0 0 0 48 0v-64h-8v64a1 1 0 0 1-32 0v-64z
M380 16h16a1 1 0 0 1 0 48l24 40h-8l-24-40v40h-8v-48h16a1 1 0 0 0 0-32h-16z
M432 16v64a1 1 0 0 0 48 0v-64h-8v64a1 1 0 0 1-32 0v-64z" />
	<path d="
M516 16l32 72l32-72l3 12l-35 76l-35-76z
M510 40l-16 64h8l13-52z
M586 40l16 64h-8l-13-52z" />
</svg>
